<?xml version="1.0" encoding="utf-8"?>
<!-- Generator: Adobe Illustrator 23.0.3, SVG Export Plug-In . SVG Version: 6.00 Build 0)  -->
<svg version="1.1" id="Layer_1" xmlns="http://www.w3.org/2000/svg" xmlns:xlink="http://www.w3.org/1999/xlink" x="0px" y="0px"
	 viewBox="0 0 100 100" style="enable-background:new 0 0 100 100;" xml:space="preserve">
<style type="text/css">
	.st0{fill:#FFFFFF;}
</style>
<path id="profile_x5F_image_x5F_favorite_x5F_round" class="st0" d="M58.1,49.98c-1.31-0.93-2.71-1.75-4.19-2.45
	c3.41-3.14,5.58-7.55,5.58-12.55c0-9.4-7.57-17-16.94-17.12h23.81c1.9,0,3.43,1.54,3.43,3.43v31.2c0,1.73,1.4,3.12,3.12,3.12
	c2.6,0,3.74-1.39,3.74-3.12V17.86c0-3.79-3.07-6.86-6.86-6.86H14.86C11.07,11,8,14.07,8,17.86v54.92c0,3.79,3.07,6.86,6.86,6.86
	H49.5c1.73,0,3.12-1.4,3.12-3.12c0-2.6-1.39-3.74-3.12-3.74H21.64c0,0-0.02-0.23-0.02-0.37c0-10.63,8.09-19.38,18.43-20.46
	c0.75,0.1,1.49,0.23,2.27,0.23c0.73,0,1.43-0.22,2.14-0.3c3.25,0.35,6.26,0.32,8.88,2.75C56.77,57.82,61.96,52.72,58.1,49.98z
	 M14.91,69.55c0-0.07-0.04-0.13-0.04-0.2V21.3c0-1.9,1.54-3.43,3.43-3.43H42.1c-9.37,0.12-16.94,7.75-16.94,17.15
	c0,4.96,2.13,9.4,5.5,12.53C22.1,51.52,15.92,59.76,14.91,69.55z M44.46,45.09c-0.74-0.06-1.49-0.11-2.25-0.11
	c-0.7,0-1.38,0.05-2.06,0.1c-4.64-1-8.13-5.13-8.13-10.06c0-5.68,4.62-10.3,10.3-10.3s10.3,4.62,10.3,10.3
	C52.62,39.97,49.12,44.11,44.46,45.09z M82.85,79.28c-0.61,0.6-0.89,1.45-0.75,2.3l0.92,5.39c0.29,1.68-1.04,3.04-2.56,3.04
	c-0.4,0-0.81-0.09-1.21-0.3l-4.84-2.54c-0.38-0.2-0.79-0.3-1.21-0.3c-0.41,0-0.83,0.1-1.21,0.3l-4.84,2.54
	c-0.4,0.21-0.81,0.3-1.21,0.3c-1.51,0-2.84-1.36-2.56-3.04l0.92-5.39c0.14-0.84-0.13-1.7-0.75-2.3l-3.91-3.81
	c-1.54-1.5-0.69-4.12,1.44-4.43l5.41-0.79c0.84-0.12,1.58-0.65,1.95-1.42l2.42-4.9c0.48-0.96,1.4-1.45,2.33-1.45
	c0.93,0,1.85,0.48,2.33,1.45l2.42,4.9c0.38,0.77,1.11,1.3,1.95,1.42l5.41,0.79c2.13,0.31,2.98,2.92,1.44,4.43L82.85,79.28z"/>
</svg>
