<svg id="Layer_1" data-name="Layer 1" xmlns="http://www.w3.org/2000/svg" viewBox="0 0 480 479.99"><defs><style>.cls-1{fill:#fff;}.cls-2{fill:#0b2243;}</style></defs><title>navicons-books-blanc</title><path class="cls-1" d="M8,64H120a8,8,0,0,1,8,8V472a8,8,0,0,1-8,8H8a8,8,0,0,1-8-8V72A8,8,0,0,1,8,64Z" transform="translate(0 -0.01)"/><path class="cls-1" d="M136,0H240a8,8,0,0,1,8,8V472a8,8,0,0,1-8,8H136a8,8,0,0,1-8-8V8A8,8,0,0,1,136,0Z" transform="translate(0 -0.01)"/><path class="cls-1" d="M474.07,447.76l-120,32A9.09,9.09,0,0,1,352,480a7.74,7.74,0,0,1-4-1.12,8.06,8.06,0,0,1-3.76-4.88l-96-368a8.06,8.06,0,0,1,5.69-9.76l120-32A8.17,8.17,0,0,1,383.75,70l96,368A8.06,8.06,0,0,1,474.07,447.76Z" transform="translate(0 -0.01)"/><path class="cls-2" d="M32,144H96a8,8,0,0,1,8,8v64a8,8,0,0,1-8,8H32a8,8,0,0,1-8-8V152A8,8,0,0,1,32,144Z" transform="translate(0 -0.01)"/><path class="cls-2" d="M0,104H128v16H0Z" transform="translate(0 -0.01)"/><path class="cls-2" d="M0,360H128v16H0Z" transform="translate(0 -0.01)"/><path class="cls-2" d="M0,400H128v16H0Z" transform="translate(0 -0.01)"/><path class="cls-2" d="M128,48H248V64H128Z" transform="translate(0 -0.01)"/><path class="cls-2" d="M128,88H248v16H128Z" transform="translate(0 -0.01)"/><path class="cls-2" d="M128,384H248v16H128Z" transform="translate(0 -0.01)"/><path class="cls-2" d="M128,416H248v16H128Z" transform="translate(0 -0.01)"/><path class="cls-2" d="M395.5,115,259.9,150.7l4,15.49,135.59-35.68Z" transform="translate(0 -0.01)"/><path class="cls-2" d="M403.3,145,267.71,180.65l4,15.48,135.59-35.68Z" transform="translate(0 -0.01)"/><path class="cls-2" d="M453.26,336.45l-135.6,35.68,4,15.49,135.6-35.69Z" transform="translate(0 -0.01)"/><path class="cls-2" d="M466,385.31,330.4,421l4,15.49,135.61-35.68Z" transform="translate(0 -0.01)"/></svg>