<?xml version="1.0" encoding="utf-8"?>
<!-- Generator: Adobe Illustrator 23.0.3, SVG Export Plug-In . SVG Version: 6.00 Build 0)  -->
<svg version="1.1" id="Layer_1" xmlns="http://www.w3.org/2000/svg" xmlns:xlink="http://www.w3.org/1999/xlink" x="0px" y="0px"
	 viewBox="0 0 100 100" style="enable-background:new 0 0 100 100;" xml:space="preserve">
<style type="text/css">
	.st0{fill:#FFFFFF;}
</style>
<path id="network_x5F_3_2_" class="st0" d="M91,32.9V8C79,8,44.74,8,32.9,8v8.3H16.3V8H8v74.7c8.77,0,16.07,0,24.9,0V91
	c44.51,0,13.61,0,58.1,0V66.1c-12,0-46.26,0-58.1,0v8.3H16.3V53.65h16.6v8.3c11.84,0,46.1,0,58.1,0v-24.9c-43.69,0-13.98,0-58.1,0
	v8.3H16.3V24.6h16.6v8.3C77.41,32.9,46.51,32.9,91,32.9z M41.2,16.3h41.5v8.3H41.2V16.3z M41.2,74.4h41.5v8.3H41.2V74.4z
	 M41.2,45.35h41.5v8.3H41.2V45.35z"/>
</svg>
